<svg id="visual" viewBox="0 0 900 600" width="900" height="600" xmlns="http://www.w3.org/2000/svg" xmlns:xlink="http://www.w3.org/1999/xlink" version="1.1"><g stroke-width="1" stroke-linejoin="bevel"><path d="M487 323L569 313L536 214Z" fill="#c13c2e" stroke="#c13c2e"></path><path d="M569 313L573 180L536 214Z" fill="#c93f33" stroke="#c93f33"></path><path d="M534 106L402 191L536 214Z" fill="#e94a48" stroke="#e94a48"></path><path d="M536 214L402 191L487 323Z" fill="#b23725" stroke="#b23725"></path><path d="M402 191L373 288L487 323Z" fill="#e14842" stroke="#e14842"></path><path d="M569 313L675 276L573 180Z" fill="#aa3420" stroke="#aa3420"></path><path d="M373 288L425 393L487 323Z" fill="#aa3420" stroke="#aa3420"></path><path d="M487 323L486 429L569 313Z" fill="#c93f33" stroke="#c93f33"></path><path d="M569 313L715 385L675 276Z" fill="#d9453d" stroke="#d9453d"></path><path d="M425 393L486 429L487 323Z" fill="#d14238" stroke="#d14238"></path><path d="M601 79L534 106L573 180Z" fill="#e94a48" stroke="#e94a48"></path><path d="M573 180L534 106L536 214Z" fill="#d14238" stroke="#d14238"></path><path d="M486 429L590 438L569 313Z" fill="#aa3420" stroke="#aa3420"></path><path d="M301 178L323 323L373 288Z" fill="#b93a29" stroke="#b93a29"></path><path d="M373 288L323 323L425 393Z" fill="#fa5053" stroke="#fa5053"></path><path d="M833 313L718 203L675 276Z" fill="#c13c2e" stroke="#c13c2e"></path><path d="M675 276L718 203L573 180Z" fill="#aa3420" stroke="#aa3420"></path><path d="M679 119L601 79L573 180Z" fill="#c13c2e" stroke="#c13c2e"></path><path d="M428 0L371 120L534 106Z" fill="#d14238" stroke="#d14238"></path><path d="M534 106L371 120L402 191Z" fill="#b93a29" stroke="#b93a29"></path><path d="M402 191L301 178L373 288Z" fill="#d14238" stroke="#d14238"></path><path d="M718 203L679 119L573 180Z" fill="#d14238" stroke="#d14238"></path><path d="M425 393L464 487L486 429Z" fill="#e14842" stroke="#e14842"></path><path d="M486 429L563 535L590 438Z" fill="#f24d4d" stroke="#f24d4d"></path><path d="M377 503L464 487L425 393Z" fill="#aa3420" stroke="#aa3420"></path><path d="M590 438L715 385L569 313Z" fill="#d14238" stroke="#d14238"></path><path d="M371 120L301 178L402 191Z" fill="#d9453d" stroke="#d9453d"></path><path d="M464 487L563 535L486 429Z" fill="#f24d4d" stroke="#f24d4d"></path><path d="M590 438L677 508L715 385Z" fill="#f24d4d" stroke="#f24d4d"></path><path d="M205 366L310 434L323 323Z" fill="#fa5053" stroke="#fa5053"></path><path d="M323 323L310 434L425 393Z" fill="#d14238" stroke="#d14238"></path><path d="M464 487L535 600L563 535Z" fill="#b23725" stroke="#b23725"></path><path d="M325 462L377 503L425 393Z" fill="#fa5053" stroke="#fa5053"></path><path d="M310 434L325 462L425 393Z" fill="#e14842" stroke="#e14842"></path><path d="M627 0L516 0L601 79Z" fill="#d9453d" stroke="#d9453d"></path><path d="M601 79L516 0L534 106Z" fill="#b93a29" stroke="#b93a29"></path><path d="M563 535L677 508L590 438Z" fill="#e94a48" stroke="#e94a48"></path><path d="M516 0L428 0L534 106Z" fill="#d9453d" stroke="#d9453d"></path><path d="M371 120L289 88L301 178Z" fill="#e94a48" stroke="#e94a48"></path><path d="M696 0L627 0L601 79Z" fill="#c93f33" stroke="#c93f33"></path><path d="M696 0L601 79L679 119Z" fill="#e94a48" stroke="#e94a48"></path><path d="M428 0L289 88L371 120Z" fill="#e94a48" stroke="#e94a48"></path><path d="M301 178L195 307L323 323Z" fill="#e94a48" stroke="#e94a48"></path><path d="M787 522L801 390L715 385Z" fill="#b93a29" stroke="#b93a29"></path><path d="M715 385L833 313L675 276Z" fill="#b23725" stroke="#b23725"></path><path d="M801 390L833 313L715 385Z" fill="#e14842" stroke="#e14842"></path><path d="M718 203L809 75L679 119Z" fill="#c13c2e" stroke="#c13c2e"></path><path d="M289 88L224 174L301 178Z" fill="#e14842" stroke="#e14842"></path><path d="M833 313L834 207L718 203Z" fill="#fa5053" stroke="#fa5053"></path><path d="M809 75L696 0L679 119Z" fill="#f24d4d" stroke="#f24d4d"></path><path d="M436 600L535 600L464 487Z" fill="#f24d4d" stroke="#f24d4d"></path><path d="M563 535L661 600L677 508Z" fill="#c93f33" stroke="#c93f33"></path><path d="M224 174L195 307L301 178Z" fill="#f24d4d" stroke="#f24d4d"></path><path d="M310 434L203 516L325 462Z" fill="#e14842" stroke="#e14842"></path><path d="M195 307L205 366L323 323Z" fill="#f24d4d" stroke="#f24d4d"></path><path d="M535 600L579 600L563 535Z" fill="#b23725" stroke="#b23725"></path><path d="M270 600L436 600L377 503Z" fill="#f24d4d" stroke="#f24d4d"></path><path d="M377 503L436 600L464 487Z" fill="#b23725" stroke="#b23725"></path><path d="M270 600L377 503L325 462Z" fill="#c93f33" stroke="#c93f33"></path><path d="M834 207L809 75L718 203Z" fill="#c93f33" stroke="#c93f33"></path><path d="M579 600L661 600L563 535Z" fill="#c13c2e" stroke="#c13c2e"></path><path d="M677 508L787 522L715 385Z" fill="#f24d4d" stroke="#f24d4d"></path><path d="M661 600L787 522L677 508Z" fill="#c93f33" stroke="#c93f33"></path><path d="M900 423L900 261L833 313Z" fill="#b93a29" stroke="#b93a29"></path><path d="M428 0L282 0L289 88Z" fill="#fa5053" stroke="#fa5053"></path><path d="M289 88L183 89L224 174Z" fill="#fa5053" stroke="#fa5053"></path><path d="M833 313L900 261L834 207Z" fill="#b23725" stroke="#b23725"></path><path d="M834 207L900 103L809 75Z" fill="#c93f33" stroke="#c93f33"></path><path d="M900 423L833 313L801 390Z" fill="#d9453d" stroke="#d9453d"></path><path d="M900 261L900 218L834 207Z" fill="#e94a48" stroke="#e94a48"></path><path d="M237 0L183 89L289 88Z" fill="#e94a48" stroke="#e94a48"></path><path d="M224 174L139 204L195 307Z" fill="#aa3420" stroke="#aa3420"></path><path d="M183 89L139 204L224 174Z" fill="#b23725" stroke="#b23725"></path><path d="M195 307L130 288L205 366Z" fill="#f24d4d" stroke="#f24d4d"></path><path d="M139 204L130 288L195 307Z" fill="#c13c2e" stroke="#c13c2e"></path><path d="M282 0L237 0L289 88Z" fill="#c93f33" stroke="#c93f33"></path><path d="M900 0L816 0L809 75Z" fill="#e94a48" stroke="#e94a48"></path><path d="M809 75L816 0L696 0Z" fill="#e14842" stroke="#e14842"></path><path d="M92 386L203 516L205 366Z" fill="#aa3420" stroke="#aa3420"></path><path d="M205 366L203 516L310 434Z" fill="#b23725" stroke="#b23725"></path><path d="M900 497L900 423L801 390Z" fill="#c13c2e" stroke="#c13c2e"></path><path d="M203 516L270 600L325 462Z" fill="#c13c2e" stroke="#c13c2e"></path><path d="M900 218L900 103L834 207Z" fill="#f24d4d" stroke="#f24d4d"></path><path d="M839 600L900 497L787 522Z" fill="#c13c2e" stroke="#c13c2e"></path><path d="M787 522L900 497L801 390Z" fill="#e14842" stroke="#e14842"></path><path d="M203 516L229 600L270 600Z" fill="#d14238" stroke="#d14238"></path><path d="M123 531L229 600L203 516Z" fill="#fa5053" stroke="#fa5053"></path><path d="M0 276L92 386L130 288Z" fill="#aa3420" stroke="#aa3420"></path><path d="M130 288L92 386L205 366Z" fill="#fa5053" stroke="#fa5053"></path><path d="M661 600L839 600L787 522Z" fill="#e14842" stroke="#e14842"></path><path d="M900 103L900 0L809 75Z" fill="#fa5053" stroke="#fa5053"></path><path d="M92 386L123 531L203 516Z" fill="#b93a29" stroke="#b93a29"></path><path d="M183 89L68 112L139 204Z" fill="#c93f33" stroke="#c93f33"></path><path d="M139 204L0 276L130 288Z" fill="#f24d4d" stroke="#f24d4d"></path><path d="M90 0L68 112L183 89Z" fill="#c13c2e" stroke="#c13c2e"></path><path d="M839 600L900 600L900 497Z" fill="#e94a48" stroke="#e94a48"></path><path d="M237 0L90 0L183 89Z" fill="#b23725" stroke="#b23725"></path><path d="M0 194L0 276L139 204Z" fill="#fa5053" stroke="#fa5053"></path><path d="M92 386L0 478L123 531Z" fill="#e14842" stroke="#e14842"></path><path d="M0 194L139 204L68 112Z" fill="#f24d4d" stroke="#f24d4d"></path><path d="M0 132L0 194L68 112Z" fill="#b23725" stroke="#b23725"></path><path d="M0 0L0 132L68 112Z" fill="#aa3420" stroke="#aa3420"></path><path d="M0 276L0 415L92 386Z" fill="#d14238" stroke="#d14238"></path><path d="M0 415L0 478L92 386Z" fill="#e94a48" stroke="#e94a48"></path><path d="M123 531L61 600L229 600Z" fill="#e94a48" stroke="#e94a48"></path><path d="M0 478L61 600L123 531Z" fill="#e14842" stroke="#e14842"></path><path d="M90 0L0 0L68 112Z" fill="#fa5053" stroke="#fa5053"></path><path d="M0 478L0 600L61 600Z" fill="#b93a29" stroke="#b93a29"></path></g></svg>