<svg id="visual" viewBox="0 0 900 600" width="900" height="600" xmlns="http://www.w3.org/2000/svg" xmlns:xlink="http://www.w3.org/1999/xlink" version="1.1"><g stroke-width="1" stroke-linejoin="bevel"><path d="M460 300L380 188L384 332Z" fill="#d9453d" stroke="#d9453d"></path><path d="M380 188L288 239L384 332Z" fill="#e14842" stroke="#e14842"></path><path d="M288 239L303 338L384 332Z" fill="#aa3420" stroke="#aa3420"></path><path d="M514 174L399 120L380 188Z" fill="#fa5053" stroke="#fa5053"></path><path d="M380 188L282 87L288 239Z" fill="#d14238" stroke="#d14238"></path><path d="M460 300L514 174L380 188Z" fill="#d14238" stroke="#d14238"></path><path d="M303 338L365 413L384 332Z" fill="#fa5053" stroke="#fa5053"></path><path d="M384 332L532 375L460 300Z" fill="#d9453d" stroke="#d9453d"></path><path d="M532 375L560 295L460 300Z" fill="#e94a48" stroke="#e94a48"></path><path d="M460 300L560 295L514 174Z" fill="#b93a29" stroke="#b93a29"></path><path d="M365 413L532 375L384 332Z" fill="#b23725" stroke="#b23725"></path><path d="M560 295L578 220L514 174Z" fill="#e94a48" stroke="#e94a48"></path><path d="M578 220L521 120L514 174Z" fill="#e14842" stroke="#e14842"></path><path d="M514 174L521 120L399 120Z" fill="#e14842" stroke="#e14842"></path><path d="M303 338L296 417L365 413Z" fill="#f24d4d" stroke="#f24d4d"></path><path d="M239 383L296 417L303 338Z" fill="#aa3420" stroke="#aa3420"></path><path d="M282 87L208 223L288 239Z" fill="#d9453d" stroke="#d9453d"></path><path d="M288 239L175 317L303 338Z" fill="#d14238" stroke="#d14238"></path><path d="M175 317L239 383L303 338Z" fill="#e94a48" stroke="#e94a48"></path><path d="M333 0L282 87L399 120Z" fill="#c13c2e" stroke="#c13c2e"></path><path d="M399 120L282 87L380 188Z" fill="#f24d4d" stroke="#f24d4d"></path><path d="M266 496L395 483L296 417Z" fill="#aa3420" stroke="#aa3420"></path><path d="M296 417L395 483L365 413Z" fill="#e94a48" stroke="#e94a48"></path><path d="M365 413L395 483L532 375Z" fill="#b93a29" stroke="#b93a29"></path><path d="M208 223L175 317L288 239Z" fill="#c13c2e" stroke="#c13c2e"></path><path d="M395 483L568 438L532 375Z" fill="#b23725" stroke="#b23725"></path><path d="M532 375L661 334L560 295Z" fill="#d14238" stroke="#d14238"></path><path d="M560 295L661 334L578 220Z" fill="#d14238" stroke="#d14238"></path><path d="M578 220L574 71L521 120Z" fill="#e94a48" stroke="#e94a48"></path><path d="M521 120L420 0L399 120Z" fill="#e94a48" stroke="#e94a48"></path><path d="M531 0L420 0L521 120Z" fill="#d14238" stroke="#d14238"></path><path d="M420 0L333 0L399 120Z" fill="#b23725" stroke="#b23725"></path><path d="M190 490L266 496L239 383Z" fill="#aa3420" stroke="#aa3420"></path><path d="M239 383L266 496L296 417Z" fill="#c93f33" stroke="#c93f33"></path><path d="M208 223L127 291L175 317Z" fill="#e94a48" stroke="#e94a48"></path><path d="M76 385L190 490L239 383Z" fill="#aa3420" stroke="#aa3420"></path><path d="M92 224L127 291L208 223Z" fill="#c93f33" stroke="#c93f33"></path><path d="M163 81L208 223L282 87Z" fill="#fa5053" stroke="#fa5053"></path><path d="M568 438L661 334L532 375Z" fill="#c13c2e" stroke="#c13c2e"></path><path d="M578 220L716 96L574 71Z" fill="#d14238" stroke="#d14238"></path><path d="M574 71L531 0L521 120Z" fill="#e14842" stroke="#e14842"></path><path d="M176 0L163 81L282 87Z" fill="#b23725" stroke="#b23725"></path><path d="M423 600L521 533L395 483Z" fill="#e94a48" stroke="#e94a48"></path><path d="M395 483L521 533L568 438Z" fill="#e94a48" stroke="#e94a48"></path><path d="M568 438L695 438L661 334Z" fill="#fa5053" stroke="#fa5053"></path><path d="M130 97L92 224L208 223Z" fill="#e94a48" stroke="#e94a48"></path><path d="M521 533L569 517L568 438Z" fill="#b23725" stroke="#b23725"></path><path d="M661 334L707 226L578 220Z" fill="#b23725" stroke="#b23725"></path><path d="M574 71L610 0L531 0Z" fill="#aa3420" stroke="#aa3420"></path><path d="M76 385L239 383L175 317Z" fill="#e14842" stroke="#e14842"></path><path d="M319 600L423 600L395 483Z" fill="#aa3420" stroke="#aa3420"></path><path d="M76 385L175 317L127 291Z" fill="#e94a48" stroke="#e94a48"></path><path d="M163 81L130 97L208 223Z" fill="#e14842" stroke="#e14842"></path><path d="M683 0L610 0L574 71Z" fill="#e94a48" stroke="#e94a48"></path><path d="M319 600L395 483L266 496Z" fill="#b23725" stroke="#b23725"></path><path d="M521 533L605 600L569 517Z" fill="#c13c2e" stroke="#c13c2e"></path><path d="M333 0L176 0L282 87Z" fill="#e14842" stroke="#e14842"></path><path d="M163 81L67 0L130 97Z" fill="#e94a48" stroke="#e94a48"></path><path d="M0 260L76 385L127 291Z" fill="#f24d4d" stroke="#f24d4d"></path><path d="M667 498L695 438L568 438Z" fill="#b23725" stroke="#b23725"></path><path d="M800 310L780 184L707 226Z" fill="#fa5053" stroke="#fa5053"></path><path d="M187 600L319 600L266 496Z" fill="#fa5053" stroke="#fa5053"></path><path d="M707 226L716 96L578 220Z" fill="#b23725" stroke="#b23725"></path><path d="M780 184L716 96L707 226Z" fill="#b23725" stroke="#b23725"></path><path d="M423 600L512 600L521 533Z" fill="#d14238" stroke="#d14238"></path><path d="M569 517L667 498L568 438Z" fill="#aa3420" stroke="#aa3420"></path><path d="M605 600L667 498L569 517Z" fill="#e14842" stroke="#e14842"></path><path d="M716 96L683 0L574 71Z" fill="#e14842" stroke="#e14842"></path><path d="M800 310L707 226L661 334Z" fill="#f24d4d" stroke="#f24d4d"></path><path d="M716 96L763 0L683 0Z" fill="#d9453d" stroke="#d9453d"></path><path d="M92 224L0 260L127 291Z" fill="#c13c2e" stroke="#c13c2e"></path><path d="M0 170L0 260L92 224Z" fill="#d9453d" stroke="#d9453d"></path><path d="M0 170L92 224L130 97Z" fill="#aa3420" stroke="#aa3420"></path><path d="M512 600L605 600L521 533Z" fill="#aa3420" stroke="#aa3420"></path><path d="M76 385L112 537L190 490Z" fill="#b23725" stroke="#b23725"></path><path d="M190 490L187 600L266 496Z" fill="#b93a29" stroke="#b93a29"></path><path d="M0 433L112 537L76 385Z" fill="#d9453d" stroke="#d9453d"></path><path d="M112 537L187 600L190 490Z" fill="#fa5053" stroke="#fa5053"></path><path d="M791 384L800 310L661 334Z" fill="#c13c2e" stroke="#c13c2e"></path><path d="M791 384L661 334L695 438Z" fill="#b93a29" stroke="#b93a29"></path><path d="M791 384L695 438L804 536Z" fill="#e94a48" stroke="#e94a48"></path><path d="M763 0L768 94L900 0Z" fill="#fa5053" stroke="#fa5053"></path><path d="M780 184L768 94L716 96Z" fill="#fa5053" stroke="#fa5053"></path><path d="M0 121L0 170L130 97Z" fill="#fa5053" stroke="#fa5053"></path><path d="M804 536L695 438L667 498Z" fill="#c13c2e" stroke="#c13c2e"></path><path d="M176 0L67 0L163 81Z" fill="#e14842" stroke="#e14842"></path><path d="M67 0L0 121L130 97Z" fill="#c13c2e" stroke="#c13c2e"></path><path d="M0 260L0 433L76 385Z" fill="#f24d4d" stroke="#f24d4d"></path><path d="M0 600L124 600L112 537Z" fill="#fa5053" stroke="#fa5053"></path><path d="M112 537L124 600L187 600Z" fill="#f24d4d" stroke="#f24d4d"></path><path d="M900 99L768 94L780 184Z" fill="#d14238" stroke="#d14238"></path><path d="M768 94L763 0L716 96Z" fill="#c13c2e" stroke="#c13c2e"></path><path d="M67 0L0 0L0 121Z" fill="#c93f33" stroke="#c93f33"></path><path d="M0 433L0 522L112 537Z" fill="#aa3420" stroke="#aa3420"></path><path d="M605 600L735 600L667 498Z" fill="#d14238" stroke="#d14238"></path><path d="M735 600L804 536L667 498Z" fill="#e94a48" stroke="#e94a48"></path><path d="M900 393L900 279L800 310Z" fill="#e14842" stroke="#e14842"></path><path d="M900 393L800 310L791 384Z" fill="#e14842" stroke="#e14842"></path><path d="M800 310L900 220L780 184Z" fill="#c13c2e" stroke="#c13c2e"></path><path d="M900 279L900 220L800 310Z" fill="#e14842" stroke="#e14842"></path><path d="M804 536L900 393L791 384Z" fill="#d14238" stroke="#d14238"></path><path d="M0 522L0 600L112 537Z" fill="#e14842" stroke="#e14842"></path><path d="M900 220L900 99L780 184Z" fill="#e94a48" stroke="#e94a48"></path><path d="M735 600L825 600L804 536Z" fill="#b93a29" stroke="#b93a29"></path><path d="M804 536L900 530L900 393Z" fill="#c93f33" stroke="#c93f33"></path><path d="M900 99L900 0L768 94Z" fill="#d14238" stroke="#d14238"></path><path d="M825 600L900 530L804 536Z" fill="#c93f33" stroke="#c93f33"></path><path d="M825 600L900 600L900 530Z" fill="#c93f33" stroke="#c93f33"></path></g></svg>